<svg width="1280" height="832" viewBox="0 0 1280 832" fill="none" xmlns="http://www.w3.org/2000/svg">
<g filter="url(#filter0_f_18_4)">
<path d="M491.721 454.026C463.505 464.856 420.262 435.232 406.215 412.563C392.167 389.893 398.228 349.715 407.437 318.009C416.646 286.302 436.769 236.109 461.471 222.323C486.172 208.537 536.638 214.416 555.645 235.292C574.651 256.168 586.163 311.124 575.509 347.58" fill="url(#paint0_linear_18_4)"/>
<path d="M734.201 586.199C695.669 614.319 633.913 623.364 592.14 589.407C550.367 555.449 487.499 440.8 483.562 382.457C479.625 324.113 526.904 264.169 568.518 239.346C610.131 214.523 690.774 203.293 733.243 233.517C775.712 263.741 823.172 361.91 823.331 420.69" fill="url(#paint1_linear_18_4)"/>
<path d="M855.502 467.477C869.519 504.648 891.809 565.519 877.479 590.118C863.15 614.716 800.692 620.98 769.525 615.069C738.359 609.158 701.605 586.578 690.48 554.651C679.355 522.723 685.628 454.765 702.777 423.505C719.926 392.246 767.922 359.765 793.376 367.094" fill="url(#paint2_linear_18_4)"/>
</g>
<defs>
<filter id="filter0_f_18_4" x="-150" y="-150" width="1580" height="1132" filterUnits="userSpaceOnUse" color-interpolation-filters="sRGB">
<feFlood flood-opacity="0" result="BackgroundImageFix"/>
<feBlend mode="normal" in="SourceGraphic" in2="BackgroundImageFix" result="shape"/>
<feGaussianBlur stdDeviation="75" result="effect1_foregroundBlur_18_4"/>
</filter>
<linearGradient id="paint0_linear_18_4" x1="752.472" y1="224.173" x2="662.076" y2="633.555" gradientUnits="userSpaceOnUse">
<stop stop-color="#97FF80"/>
<stop offset="1" stop-color="#80FFE8"/>
</linearGradient>
<linearGradient id="paint1_linear_18_4" x1="640" y1="214.86" x2="640" y2="617.14" gradientUnits="userSpaceOnUse">
<stop stop-color="#9980FF"/>
<stop offset="1" stop-color="#FF80E6"/>
</linearGradient>
<linearGradient id="paint2_linear_18_4" x1="686.655" y1="482.15" x2="888.76" y2="501.187" gradientUnits="userSpaceOnUse">
<stop stop-color="#80FFE6"/>
<stop offset="1" stop-color="#8099FF"/>
</linearGradient>
</defs>
</svg>
