<svg width="1280" height="832" viewBox="0 0 1280 832" fill="none" xmlns="http://www.w3.org/2000/svg">
<g filter="url(#filter0_f_23_178)">
<path d="M721.781 592.762C676.573 615.254 584.673 606.605 546.464 570.789C508.256 534.974 481.45 435.666 492.529 377.87C503.608 320.074 569.579 246.788 612.94 224.013C656.301 201.238 718.566 205.916 752.695 241.22C786.824 276.523 822.865 377.246 817.713 435.837" fill="url(#paint0_linear_23_178)"/>
<path d="M587.08 560.814C560.219 583.832 529.929 583.122 509.055 552.752C488.18 522.383 460.593 430.007 461.833 378.597C463.073 327.187 490.412 260.693 516.493 244.294C542.575 227.895 592.7 251.811 618.322 280.202C643.943 308.593 675.429 367.873 670.222 414.641" fill="url(#paint1_linear_23_178)"/>
<path d="M720.527 615.028C701.638 629.916 679.957 618.612 655.353 601.352C630.748 584.091 575.541 542.169 572.9 511.463C570.259 480.756 617.073 430.085 639.507 417.111C661.941 404.136 685.973 417.796 707.503 433.614C729.033 449.432 766.515 481.783 768.686 512.019" fill="url(#paint2_linear_23_178)"/>
</g>
<defs>
<filter id="filter0_f_23_178" x="-150" y="-150" width="1580" height="1132" filterUnits="userSpaceOnUse" color-interpolation-filters="sRGB">
<feFlood flood-opacity="0" result="BackgroundImageFix"/>
<feBlend mode="normal" in="SourceGraphic" in2="BackgroundImageFix" result="shape"/>
<feGaussianBlur stdDeviation="75" result="effect1_foregroundBlur_23_178"/>
</filter>
<linearGradient id="paint0_linear_23_178" x1="640" y1="210.061" x2="640" y2="621.939" gradientUnits="userSpaceOnUse">
<stop stop-color="#DD80FF"/>
<stop offset="1" stop-color="#FF80A2"/>
</linearGradient>
<linearGradient id="paint1_linear_23_178" x1="640" y1="210.061" x2="640" y2="621.939" gradientUnits="userSpaceOnUse">
<stop stop-color="#FF80A6"/>
<stop offset="1" stop-color="#FFD980"/>
</linearGradient>
<linearGradient id="paint2_linear_23_178" x1="670.792" y1="411.939" x2="670.792" y2="621.939" gradientUnits="userSpaceOnUse">
<stop stop-color="#80FFF2"/>
<stop offset="1" stop-color="#808CFF"/>
</linearGradient>
</defs>
</svg>
